<?xml version="1.0" encoding="utf-8"?>
<!-- Generator: Adobe Illustrator 16.0.0, SVG Export Plug-In . SVG Version: 6.00 Build 0)  -->
<!DOCTYPE svg PUBLIC "-//W3C//DTD SVG 1.1//EN" "http://www.w3.org/Graphics/SVG/1.1/DTD/svg11.dtd">
<svg version="1.1" id="Layer_1" xmlns="http://www.w3.org/2000/svg" xmlns:xlink="http://www.w3.org/1999/xlink" x="0px" y="0px"
	 width="204.702px" height="103.495px" viewBox="0 0 204.702 103.495" enable-background="new 0 0 204.702 103.495"
	 xml:space="preserve">
<g>
	<path fill="#FAF7BF" d="M133.643,21.755l-0.018,0.395c-0.977-0.042-2.037-0.071-3.156-0.071h-0.01
		c-3.873,0-8.429,0.332-12.479,1.448c-4.058,1.117-7.582,3.019-9.472,6.098c-0.933,1.515-1.301,2.898-1.303,4.211
		c-0.006,2.542,1.422,4.903,3.146,7.291c1.715,2.389,3.702,4.782,4.684,7.469c0.49,1.348,0.705,2.61,0.705,3.794
		c0,1.925-0.567,3.644-1.397,5.233c-1.25,2.385-3.088,4.506-4.592,6.709c-1.508,2.205-2.674,4.465-2.673,7.131
		c0,0.5,0.041,1.015,0.128,1.549c0.547,3.287,2.145,5.377,4.385,6.701c2.235,1.318,5.142,1.842,8.236,1.842h0.021
		c5.494,0,11.556-1.641,15.437-3.141c7.058-2.719,14.095-7.215,19.349-12.775c5.26-5.564,8.725-12.178,8.724-19.139
		c-0.001-4.151-1.224-8.438-4.06-12.746c-1.949-2.967-5.664-5.891-10.139-8.051c-4.472-2.161-9.699-3.566-14.668-3.566h-0.006
		c-0.277,0-0.555,0.005-0.829,0.014L133.643,21.755"/>
	<g>
		<defs>
			<rect id="SVGID_1_" x="106.285" y="21.29" width="57.862" height="61.058"/>
		</defs>
		<clipPath id="SVGID_2_">
			<use xlink:href="#SVGID_1_"  overflow="visible"/>
		</clipPath>
		<path clip-path="url(#SVGID_2_)" fill="#E1B8A0" d="M133.643,21.755L133.643,21.755l0.013,0.396
			c0.274-0.008,0.552-0.014,0.829-0.014h0.005c4.97,0.001,10.197,1.405,14.669,3.567c4.475,2.159,8.189,5.083,10.139,8.051
			c2.836,4.309,4.059,8.594,4.06,12.745c0.001,6.963-3.464,13.577-8.724,19.138c-5.254,5.562-12.291,10.058-19.349,12.776
			c-3.881,1.5-9.942,3.142-15.438,3.142h-0.02c-3.095,0-6.001-0.524-8.236-1.843c-2.24-1.324-3.838-3.414-4.383-6.702
			c-0.089-0.532-0.13-1.048-0.13-1.546c0-2.666,1.165-4.928,2.673-7.133c1.504-2.201,3.342-4.324,4.592-6.709
			c0.83-1.59,1.397-3.308,1.397-5.233c0-1.185-0.216-2.445-0.706-3.794c-0.979-2.687-2.969-5.08-4.684-7.468
			c-1.723-2.388-3.15-4.749-3.145-7.292c0.002-1.313,0.37-2.695,1.303-4.212c1.89-3.079,5.414-4.98,9.473-6.096
			c4.05-1.117,8.605-1.448,12.479-1.448h0.01c1.119,0,2.181,0.027,3.156,0.071L133.643,21.755 M130.678,21.29h-0.405
			c-3.878,0.012-8.411,0.35-12.503,1.476c-4.155,1.147-7.881,3.111-9.936,6.444c-0.996,1.619-1.42,3.162-1.42,4.627
			c0.006,2.851,1.56,5.341,3.293,7.754c1.741,2.413,3.676,4.772,4.584,7.277c0.459,1.27,0.656,2.434,0.657,3.523
			c0,2.647-1.164,4.896-2.672,7.097c-1.504,2.198-3.344,4.322-4.592,6.719c-0.832,1.596-1.399,3.322-1.399,5.26
			c0,0.543,0.045,1.1,0.139,1.675c0.568,3.487,2.338,5.835,4.762,7.255c2.423,1.424,5.466,1.951,8.65,1.952
			c5.653-0.002,11.773-1.668,15.733-3.192c7.163-2.763,14.287-7.311,19.642-12.972c5.348-5.66,8.936-12.449,8.937-19.683
			c0.001-4.307-1.278-8.76-4.188-13.18c-2.074-3.145-5.888-6.118-10.457-8.328c-4.57-2.208-9.898-3.644-15.018-3.646
			c-0.281,0-0.562,0.005-0.842,0.014C132.721,21.319,131.726,21.292,130.678,21.29"/>
	</g>
	<polyline fill="#AF1F24" points="136.602,50.668 133.605,55.854 130.611,50.668 136.602,50.668 	"/>
	<path fill="none" stroke="#AE1F24" stroke-width="0.791" d="M143.693,66.04c10.695-3.764,22.898,5.539,33.827,5.106"/>
	<path fill="none" stroke="#B53033" stroke-width="0.791" d="M138.383,76.12c2.551,0.75,1.75,3.688,1.641,5.998
		c-0.046,0.975-0.865,2.676-0.95,3.635c-0.157,1.85,3.4,1.899,4.177,0.377c0.588-1.157-0.066-3.078-0.322-4.256
		c-0.569-2.651-0.204-5.791,0.756-8.381c0.275-0.72,1.557-2.013,1.473-2c1.186-0.49,1.846-0.648,3.094-0.81
		c1.239-0.158,2.492-0.162,3.732-0.036c2.531,0.256,5.049,0.904,7.506,1.622c2.525,0.735,5.001,1.669,7.518,2.437
		c2.441,0.737,4.943,1.371,7.465,1.674c1.151,0.14,2.278,0.151,3.394,0.055"/>
	<path fill="none" stroke="#AE1F24" stroke-width="0.791" d="M177.36,71.165c1.207,0,2.591,0.56,3.113,1.703
		c0.815,1.752-0.933,3.631-2.681,3.576"/>
	
		<line fill="none" stroke="#6093CD" stroke-width="0.791" stroke-miterlimit="10" x1="117.877" y1="65.972" x2="143.786" y2="65.972"/>
	<path fill="#FAF7BF" d="M83.498,23.523h-0.023c-5.496,0-11.556,1.644-15.438,3.143c-7.056,2.718-14.094,7.213-19.35,12.774
		c-5.259,5.563-8.723,12.176-8.722,19.139c0.001,4.149,1.225,8.438,4.059,12.746c1.95,2.965,5.664,5.891,10.138,8.049
		c4.471,2.162,9.699,3.566,14.669,3.566h0.005c0.278,0,0.555-0.004,0.831-0.014l0.013,0.396l0.017-0.396
		c0.976,0.045,2.036,0.072,3.152,0.072h0.021c3.874,0,8.427-0.332,12.474-1.449c4.058-1.115,7.581-3.016,9.469-6.094
		c0.932-1.517,1.301-2.898,1.303-4.211c0.004-2.543-1.422-4.904-3.144-7.291c-1.715-2.39-3.704-4.783-4.684-7.47
		c-0.49-1.349-0.705-2.61-0.705-3.796c0-1.924,0.566-3.642,1.398-5.232c1.249-2.386,3.087-4.507,4.591-6.71
		c1.507-2.205,2.671-4.465,2.671-7.13c0-0.499-0.041-1.014-0.128-1.548c-0.547-3.287-2.144-5.378-4.382-6.702
		C89.497,24.047,86.59,23.523,83.498,23.523"/>
	<path fill="#E1B8A0" d="M83.486,23.523h0.011c3.093,0,5.998,0.524,8.235,1.843c2.238,1.325,3.836,3.415,4.381,6.702
		c0.088,0.534,0.129,1.049,0.129,1.548c0,2.665-1.164,4.925-2.671,7.13c-1.504,2.203-3.342,4.324-4.591,6.71
		c-0.831,1.59-1.399,3.308-1.398,5.232c-0.001,1.186,0.215,2.447,0.705,3.796c0.98,2.687,2.969,5.08,4.684,7.47
		c1.721,2.387,3.15,4.748,3.143,7.289c-0.001,1.314-0.37,2.696-1.301,4.213c-1.889,3.078-5.412,4.979-9.469,6.094
		c-4.048,1.117-8.601,1.449-12.476,1.449h-0.02c-1.117,0-2.176-0.027-3.151-0.072l-0.018,0.396l-0.013-0.396
		c-0.276,0.01-0.553,0.014-0.831,0.014h-0.005c-4.969,0-10.197-1.404-14.669-3.566c-4.474-2.158-8.188-5.082-10.137-8.049
		c-2.836-4.309-4.059-8.597-4.06-12.746c-0.001-6.963,3.463-13.576,8.722-19.139c5.256-5.561,12.294-10.056,19.35-12.775
		c3.882-1.499,9.943-3.142,15.438-3.142H83.486 M83.57,22.732h-0.168c-5.629,0.019-11.71,1.676-15.651,3.195
		c-7.163,2.761-14.287,7.309-19.64,12.97c-5.35,5.658-8.937,12.447-8.938,19.682c-0.001,4.308,1.278,8.76,4.189,13.18
		c2.074,3.146,5.886,6.117,10.454,8.328c4.57,2.207,9.9,3.645,15.019,3.645c0.279,0,0.56-0.004,0.84-0.014
		c0.984,0.045,2.055,0.072,3.183,0.072c3.921,0,8.537-0.33,12.695-1.476c4.154-1.146,7.879-3.11,9.933-6.444
		c0.998-1.617,1.421-3.158,1.419-4.627c-0.004-2.849-1.56-5.34-3.293-7.752c-1.739-2.414-3.675-4.773-4.581-7.277
		c-0.461-1.271-0.657-2.434-0.657-3.525c-0.002-2.646,1.163-4.895,2.67-7.095c1.504-2.198,3.342-4.323,4.59-6.718
		c0.832-1.596,1.399-3.323,1.399-5.259c0-0.543-0.045-1.101-0.139-1.676c-0.567-3.487-2.338-5.836-4.761-7.255
		C89.734,23.273,86.724,22.743,83.57,22.732"/>
	<polyline fill="#AF1F24" points="68.104,52.649 71.099,47.462 74.092,52.649 68.104,52.649 	"/>
	<path fill="none" stroke="#AE1F24" stroke-width="0.791" d="M61.01,37.457c-10.695,3.764-22.897-5.54-33.827-5.108"/>
	<path fill="none" stroke="#B53033" stroke-width="0.791" d="M66.321,27.376c-2.551-0.75-1.752-3.688-1.64-5.998
		c0.044-0.975,0.865-2.677,0.95-3.635c0.156-1.85-3.401-1.901-4.177-0.378c-0.59,1.158,0.067,3.079,0.321,4.257
		c0.571,2.653,0.204,5.793-0.757,8.38c-0.273,0.721-1.554,2.014-1.471,2.004c-1.186,0.488-1.847,0.644-3.093,0.805
		c-1.24,0.16-2.493,0.162-3.734,0.037c-2.53-0.254-5.05-0.902-7.504-1.621c-2.528-0.737-5.002-1.67-7.52-2.435
		c-2.441-0.739-4.94-1.372-7.464-1.677c-1.15-0.138-2.277-0.151-3.392-0.054"/>
	<path fill="none" stroke="#AE1F24" stroke-width="0.791" d="M27.343,32.333c-1.207,0-2.591-0.561-3.116-1.704
		c-0.812-1.752,0.936-3.629,2.684-3.576"/>
	
		<line fill="none" stroke="#6093CD" stroke-width="0.791" stroke-miterlimit="10" x1="86.826" y1="37.525" x2="60.919" y2="37.525"/>
	
		<line fill="none" stroke="#444544" stroke-width="1.979" stroke-miterlimit="10" x1="24.022" y1="45.797" x2="67.904" y2="45.797"/>
	
		<line fill="none" stroke="#444544" stroke-width="1.979" stroke-miterlimit="10" x1="24.022" y1="57.847" x2="130.612" y2="57.847"/>
	
		<line fill="none" stroke="#444544" stroke-width="1.979" stroke-miterlimit="10" x1="74.091" y1="45.797" x2="180.68" y2="45.797"/>
	
		<line fill="none" stroke="#444544" stroke-width="1.979" stroke-miterlimit="10" x1="136.603" y1="57.847" x2="180.68" y2="57.847"/>
	
		<line fill="none" stroke="#6093CD" stroke-width="1.979" stroke-miterlimit="10" x1="88.408" y1="57.848" x2="62.501" y2="57.848"/>
	
		<line fill="none" stroke="#B31F60" stroke-width="1.979" stroke-miterlimit="10" x1="58.389" y1="57.848" x2="62.502" y2="57.848"/>
	
		<line fill="none" stroke="#6093CD" stroke-width="1.979" stroke-miterlimit="10" x1="141.141" y1="45.797" x2="115.232" y2="45.797"/>
	
		<line fill="none" stroke="#B31F60" stroke-width="1.979" stroke-miterlimit="10" x1="140.551" y1="45.797" x2="144.664" y2="45.797"/>
	<path fill="#737474" d="M85.696,44.023h0.317v-4.746h-0.317V44.023z M83.042,44.023h0.318v-4.746h-0.318V44.023z M80.386,44.023
		h0.319v-4.746h-0.319V44.023z M77.732,44.023h0.318v-4.746h-0.318V44.023z M75.079,44.023h0.318v-4.746h-0.318V44.023z
		 M67.372,44.023h0.318v-4.746h-0.318V44.023z M64.717,44.023h0.317v-4.746h-0.317V44.023z M62.062,44.023h0.318v-4.746h-0.318
		V44.023z"/>
	<path fill="#737474" d="M142.582,64.499h0.318v-4.746h-0.318V64.499z M139.928,64.499h0.317v-4.746h-0.317V64.499z M137.272,64.499
		h0.319v-4.746h-0.319V64.499z M129.565,64.499h0.317v-4.746h-0.317V64.499z M126.911,64.499h0.319v-4.746h-0.319V64.499z
		 M124.258,64.499h0.316v-4.746h-0.316V64.499z M121.603,64.499h0.319v-4.746h-0.319V64.499z M118.947,64.499h0.318v-4.746h-0.318
		V64.499z"/>
</g>
</svg>
